# xmcd
#
# Track frame offsets:
#	150
#	26683
#	44684
#	64690
#	87397
#	109966
#	132380
#	152059
#	176290
#	196852
#
# Disc length: 2925 seconds
#
# Revision: 1
# Processed by: cddbd v1.5.2PL0 Copyright (c) Steve Scherf et al.
# Submitted via: audiograbber 1.83.01
#
DISCID=860b6b0a
DTITLE=Various Artist - Der deutsche Hitmix Vol.2 - Die Party 2013 - CD4
DYEAR=2012
DGENRE=Schlager
TTITLE0=Block A - Lebt denn der alte Holzmichl noch - De Waldfichten     Anton 
TTITLE0=aus Tirol - Anton feat. DJ Ötzi     Country Roads - Die Inselflieger   
TTITLE0=Holz vor den Hütt´n - Chris Marlow
TTITLE1=Block B - Bronze, Silber und Gold - Wolfgang Petry     Du bist ein Wund
TTITLE1=er - Wolfgang Petry     Wahnsinn - Wolfgang Petry     Ganz oder gar nic
TTITLE1=ht - Wolfgang Petry
TTITLE2=Block C - Wenn der Morgen kommt - Marianne Rosenberg     Ich find´dich 
TTITLE2=Scheiße - Tic Tac Toe     Marie Ann - Andre Stade     Die Gefühle haben
TTITLE2=Schweigepflicht - Andrea Berg
TTITLE3=Block D - Dans op de Deel - Ronny B.    Känguruh Dance - Volker Rosin f
TTITLE3=eat. Chris Rabatz     Baila Loco - Soul Control     Burger Dance - DJ Ö
TTITLE3=tzi
TTITLE4=Block E - Zieh´dich aus kleine Maus - Die 4 Apostel     Das geht mir al
TTITLE4=les so am Arsch vorbei - Marco Kloss     Maddalena 2001 - Olaf Henning 
TTITLE4=& Michael Holm     Palma de Mallorca - Chris Wolff
TTITLE5=Block F - Poppe, Kaate, Danze - Brings     Fußball ist unser Leben - Br
TTITLE5=ings     Su ne Daach - Brings     Man müsste noch mal 20 sein - Brings
TTITLE6=Block G - Du kannst nicht immer 17 sein - Chris Marlow     I will leb´n
TTITLE6=DJ Ötzi     Wenn du mich willst (dann küss mich doch) - Andrea Berg 
TTITLE6=Ich flieg mit dir - Jennifer
TTITLE7=Block H - Cowboy and Indianer - Olaf Henning     Das rote Pferd - Markus 
TTITLE7=Becker feat. Mallorca Cowboys     Caipirinha - Bernhard Brink     3 wei
TTITLE7=sse Tauben - Erste Allgemeine Verunsicherung
TTITLE8=Block I - Die Banane - Chris Marlow     75 D - Leo Colonia     Du wills
TTITLE8=t immer nur f... - Ganz schön Feist     6x6 am Tag - Jürgen Drews
TTITLE9=Block J - Ruhrgebiet - Wolfgang Petry     Rosmarie - Wolfgang Petry    
TTITLE9=Diesen Typ kannst du vergessen - Wolfgang Petry     SMS: ich liebe dic
TTITLE9=h - Wolfgang Petry     Scheissegal - Wolfgang Petry     Sehnsucht nach 
TTITLE9=dir - Wolfgang Petry
EXTD=Luxusausgabe über 160 Hits auf 4CDs
EXTT0=
EXTT1=
EXTT2=
EXTT3=
EXTT4=
EXTT5=
EXTT6=
EXTT7=
EXTT8=
EXTT9=
PLAYORDER=
